<mxfile host="app.diagrams.net" modified="2023-08-21T06:59:22.108Z" agent="Mozilla/5.0 (Windows NT 10.0; Win64; x64) AppleWebKit/537.36 (KHTML, like Gecko) Chrome/115.0.0.0 Safari/537.36 OPR/101.0.0.0" version="21.6.8" etag="WJp-Gz0KhlDp112Qi-Nb" type="github">
  <diagram name="Page-1" id="t7LehzN0D2ewxh6NS-HH">
    <mxGraphModel>
      <root>
        <mxCell id="0" />
        <mxCell id="1" parent="0" />
      </root>
    </mxGraphModel>
  </diagram>
</mxfile>
